<svg version="1.2" xmlns="http://www.w3.org/2000/svg" viewBox="0 0 809 130" width="809" height="130"><style>.a{fill:#35e47f}</style><path class="a" d="m62 127.8l40-2.6-1-68v-57l-100.6 4.2 0.2 122.6 37.6 0.4-0.8-93.2 24.4-1zm121.4 0.6l40-1.2-1-70v-54.8l-39.6 0.4 0.2 15.8-13 21.8-10.6 17.4-1-53.4h-36.6l0.2 119.8 37.2 2-0.2-17 14.6-24.8 9.6-14zm121.2-0.6l40-2.6-1-68v-57l-100.6 4.2 0.2 122.6 37.6 0.4-0.8-93.2 24.4-1zm127.8-2l40-2.6-1-66v-57l-101 4.2 1.8 82.2-15.8 36.4 39.2 6.4 14-35.8 0.4-35.8-1.2-23.2 23.4-1.4zm120.8 2.6l40-1.2-1-70v-54.8l-39.6 0.4 0.2 15.8-13 21.8-10.6 17.4-1-53.4h-36.6l0.2 119.8 37.2 2-0.2-17 14.6-24.8 9.6-14zm58.2-124.6l1.6 123.4 39.8-1.4-1.4-47.2 22 14.8 2.2 34.6 42-2.4-8.4-52.4-24.6-10.8 24-14.8 3.2-42.2-40.6-2.6-1 34.8-20.4 14.8-0.8-49.2zm154.2 89.4l1.8-57.6 36.2-0.6-1.4-34.2-73.2 5.6 0.6 117.6 78.6 4v-37.2z"/></svg>