<svg version="1.2" xmlns="http://www.w3.org/2000/svg" viewBox="0 0 673 129" width="673" height="129"><style>.a{fill:#35e47f}</style><path class="a" d="m80.4 61.2l15-29v-1.2l-17.6-29.8-28.4-0.4-48.4 3-1 1.2 2.2 121.2 77.4 0.2 23.2-38v-1.6zm-22 37.8l-20.6 1.2v-24h20.2zm-4.2-48.2l-18.2 0.6v-21.4l17.8 0.2zm137 42.4l-44.4 1.2-0.2-16.8 30.4 0.4 0.4-29.4-29 0.2 0.4-16 38-0.2 0.8-31.8-68 1.4-7.6 5.2-0.8 117.6 78.8 0.6zm102.8-44.8l-29-47.4-35.2 1.4-25 51.8-5.2 71.6 34.4 0.6 1-21.4 28.6-2.4 2 24.8 36-1.6zm-57.6 26.6l1.8-18 10.4-22.6 10.8 23 1.4 16.2zm111.6-73.2l-32.2 3.4-3.6 49.8 42.4 24.6-0.6 11.4-43.6-2.4 3.6 40 75.8-7.2 3.2-60.2-40.8-18.6 1.4-8.6 36-0.2 0.2-33.4zm147-1.6l-93.8 2 0.4 35 28.8-1-0.4 89.6 39.2-1.8-4.2-88.6 31.6 0.4zm12.8 2.2l1.4 124.2 39.8-2.6-0.8-123.2zm120.6 91.8l1.8 31.8 41.8-2.2-8-49.8-19-12.8 18.8-12.6 4-44-39.6-1.4-1.2 31.4-9.2 8.2-10-9.6-0.8-31-40.2 1.6 3.2 44 21 12.8-20.2 13.2-7.6 50 41.8 2.2 2.4-31.8 10-9z"/></svg>